<svg xmlns="http://www.w3.org/2000/svg" xmlns:xlink="http://www.w3.org/1999/xlink" xml:space="preserve" width="58" height="58" version="1.1" 
     style="shape-rendering:geometricPrecision; text-rendering:geometricPrecision; image-rendering:optimizeQuality; fill-rule:evenodd; clip-rule:evenodd" 
     viewBox="-100 -128 610 690" viewport="0 0 58 58"> 
    
    <defs>
        <style type="text/css">
            .fil0 {fill:#FFF; }
            .str0 {stroke:#FFF; stroke-width:15.62;}
            g { display: none; position:absolute; }
            g:target { display:inline; }
        </style>                
    </defs>
    
    <g id="svg-indice">
        <path class="fil0" d="M385 210c-3,6 -9,9 -15,9 -3,0 -7,-1 -10,-3l-150 -94 -150 94c-9,5 -20,3 -25,-6 -5,-8 -3,-19 6,-25l160 -99c5,-4 13,-4 19,0l160 99c8,6 11,17 5,25zm-58 10l-107 -67c-6,-4 -14,-4 -19,0l-108 67c-5,3 -8,9 -8,15l0 112c0,10 8,18 18,18l59 0c10,0 18,-8 18,-18l0 -51c0,-16 14,-30 30,-30 17,0 30,14 30,30l0 51c0,10 8,18 18,18l60 0c10,0 18,-8 18,-18l0 -112c0,-6 -4,-12 -9,-15z"/>
    </g>

    <g id="svg-sub-indice">
        <path class="fil0" d="M341 215l-57 57c-32,31 -83,31 -114,0 -5,-5 -9,-11 -13,-17l27 -26c1,-1 3,-2 4,-3 2,6 5,12 10,17 16,16 41,16 57,0l57 -57c16,-16 16,-41 0,-57 -16,-16 -41,-16 -57,0l-20 20c-17,-6 -34,-8 -52,-5l44 -43c31,-32 82,-32 114,0 31,31 31,82 0,114zm-151 93l-20 21c-16,15 -42,15 -58,0 -15,-16 -15,-42 0,-57l58 -57c15,-16 41,-16 57,0 4,5 8,10 10,17 1,-1 3,-2 4,-3l26 -27c-3,-5 -7,-11 -12,-16 -31,-31 -83,-31 -114,0l-57 57c-32,32 -32,83 0,114 31,32 83,32 114,0l43 -43c-17,3 -35,1 -51,-6z"/>
    </g>
  
    <g id="svg-votacion">
        <path class="fil0" d="M119 192c0,13 -9,22 -27,26 36,23 76,76 98,107 72,-98 103,-138 121,-165 13,18 18,41 18,63 0,71 -58,129 -125,129 -72,0 -130,-58 -130,-129 0,-71 58,-125 130,-125 35,0 67,13 93,40 -71,80 -13,9 -107,129 -26,-22 -58,-58 -71,-75l0 0zm214 -58c13,-14 22,-23 49,-49 -31,0 -45,13 -67,26 -27,-26 -67,-49 -111,-49 -89,0 -161,72 -161,161 0,89 72,160 161,160 84,0 156,-71 156,-160 0,-31 -9,-63 -27,-89l0 0z"/>
    </g>
  
    <g id="svg-redes-sociales">
        <rect class="fil0" transform="matrix(0.357751 0.161565 -0.161565 0.357751 116.885 242.756)" width="540.03" height="44.45"/>
        <rect class="fil0" transform="matrix(0.290959 -0.263499 0.263499 0.290959 108.302 241.161)" width="540.03" height="44.45"/>
        <circle class="fil0" cx="101" cy="255" r="52"/>
        <circle class="fil0" cx="278" cy="99" r="52"/>
        <circle class="fil0" cx="309" cy="349" r="52"/>
    </g>

    <g id="svg-marco33">
        <path class="fil0" d="M381 242c1,-6 1,-12 1,-18 0,-98 -80,-178 -178,-178 -99,0 -179,80 -179,178 0,3 0,5 1,7 0,0 67,38 176,36 126,-2 179,-25 179,-25zm-352 17c16,82 88,144 175,144 10,0 21,-1 31,-3 33,-6 62,-20 86,-41 26,-24 46,-55 55,-91 0,0 -61,21 -174,23 -98,3 -173,-32 -173,-32zm114 -38c-33,5 -60,-18 -60,-51 0,-33 27,-63 60,-67 32,-5 59,19 59,51 0,33 -27,63 -59,67z"/>
        <path class="fil0" d="M135 161c-1,0 -1,0 -1,0 0,-3 3,-6 5,-7 1,3 -1,6 -4,7l0 0z"/>
        <path class="fil0" d="M140 137c-1,0 -2,0 -3,0 -11,2 -20,12 -20,23 0,10 8,18 18,18 0,0 1,0 2,-1 11,-1 20,-11 20,-22 0,-10 -7,-18 -17,-18l0 0z"/>
    </g>
  
    <g id="svg-lista">
        <path class="fil0" d="M321 55l-143 0c-8,0 -16,3 -21,9l-85 85c-6,5 -9,13 -9,21l0 181c0,17 14,31 31,31l227 0c17,0 31,-14 31,-31l0 -266c0,-17 -14,-30 -31,-30zm9 296c0,5 -4,9 -9,9l-227 0c-5,0 -9,-4 -9,-9l0 -174 87 0c8,0 14,-7 14,-15l0 -86 135 0c5,0 9,4 9,9l0 266 0 0z"/>
        <path class="fil0" d="M268 223l-122 0c-9,0 -16,7 -16,16 0,9 7,17 16,17l122 0c9,0 17,-8 17,-17 0,-9 -8,-16 -17,-16z"/>
        <path class="fil0" d="M268 169l-46 0c-9,0 -16,7 -16,16 0,9 7,16 16,16l46 0c9,0 17,-7 17,-16 0,-9 -8,-16 -17,-16z"/>
        <path class="fil0" d="M268 114l-46 0c-9,0 -16,7 -16,16 0,9 7,17 16,17l46 0c9,0 17,-8 17,-17 0,-9 -8,-16 -17,-16z"/>
        <path class="fil0" d="M268 285l-122 0c-9,0 -16,7 -16,16 0,9 7,16 16,16l122 0c9,0 17,-7 17,-16 0,-9 -8,-16 -17,-16z"/>
    </g>
    
    <g id="svg-explorar-lab">
        <path class="fil0" d="M331 57l-173 0c-15,0 -27,10 -31,23l22 0c2,-2 5,-3 9,-3l173 0c7,0 13,5 13,12l0 237c0,7 -6,12 -13,12l-3 0 0 20 3 0c18,0 32,-15 32,-32l0 -237c0,-18 -14,-32 -32,-32z"/>
        <path class="fil0" d="M273 104l-174 0c-17,0 -32,14 -32,32l0 236c0,18 15,32 32,32l174 0c18,0 32,-14 32,-32l0 -236c0,-18 -14,-32 -32,-32zm12 268c0,7 -5,13 -12,13l-174 0c-6,0 -12,-6 -12,-13l0 -236c0,-7 6,-13 12,-13l174 0c7,0 12,6 12,13l0 236z"/>
        <path class="fil0" d="M233 245l-75 0c-4,0 -8,4 -8,9 0,5 4,9 8,9l75 0c5,0 9,-4 9,-9 0,-5 -4,-9 -9,-9z"/>
        <path class="fil0" d="M130 244c-6,0 -10,5 -10,10 0,6 4,10 10,10 5,0 10,-4 10,-10 0,-5 -5,-10 -10,-10z"/>
        <path class="fil0" d="M233 284l-75 0c-4,0 -8,4 -8,9 0,5 4,8 8,8l75 0c5,0 9,-3 9,-8 0,-5 -4,-9 -9,-9z"/>
        <path class="fil0" d="M130 283c-6,0 -10,4 -10,10 0,5 4,10 10,10 5,0 10,-5 10,-10 0,-6 -5,-10 -10,-10z"/>
        <path class="fil0" d="M233 323l-75 0c-4,0 -8,4 -8,8 0,5 4,9 8,9l75 0c5,0 9,-4 9,-9 0,-4 -4,-8 -9,-8z"/>
        <path class="fil0" d="M130 321c-6,0 -10,5 -10,10 0,6 4,10 10,10 5,0 10,-4 10,-10 0,-5 -5,-10 -10,-10z"/>
        <path class="fil0" d="M233 207l-75 0c-4,0 -8,4 -8,8 0,5 4,9 8,9l75 0c5,0 9,-4 9,-9 0,-4 -4,-8 -9,-8z"/>
        <path class="fil0" d="M130 205c-6,0 -10,5 -10,10 0,6 4,10 10,10 5,0 10,-4 10,-10 0,-5 -5,-10 -10,-10z"/>
        <path class="fil0" d="M233 168l-75 0c-4,0 -8,4 -8,9 0,5 4,8 8,8l75 0c5,0 9,-3 9,-8 0,-5 -4,-9 -9,-9z"/>
        <path class="fil0" d="M130 167c-6,0 -10,4 -10,10 0,5 4,10 10,10 5,0 10,-5 10,-10 0,-6 -5,-10 -10,-10z"/>
    </g>

    <g id="svg-guardar-cache">
        <path class="fil0" d="M373 152c-3,-7 -7,-13 -11,-17l-61 -61c-4,-4 -9,-8 -16,-11 -7,-3 -14,-4 -20,-4l-203 0c-5,0 -10,2 -14,6 -4,4 -7,9 -7,15l0 294c0,5 3,10 7,14 4,5 9,7 14,7l294 0c6,0 11,-2 15,-7 4,-4 6,-9 6,-14l0 -203c0,-6 -1,-12 -4,-19zm-192 -58c0,-2 1,-4 2,-5 2,-1 3,-2 5,-2l42 0c2,0 4,1 5,2 2,1 2,3 2,5l0 70c0,2 0,3 -2,5 -1,1 -3,2 -5,2l-42 0c-2,0 -3,-1 -5,-2 -1,-2 -2,-3 -2,-5l0 -70zm112 273l-168 0 0 -84 168 0 0 84zm56 0l-28 0 0 0 0 -91c0,-6 -2,-11 -6,-15 -4,-4 -9,-6 -15,-6l-182 0c-5,0 -10,2 -14,6 -5,4 -7,9 -7,15l0 91 -28 0 0 -280 28 0 0 91c0,6 2,11 7,15 4,4 9,6 14,6l126 0c6,0 11,-2 15,-6 4,-4 6,-9 6,-15l0 -91c3,0 5,1 9,2 3,1 6,3 7,4l62 62c1,1 3,4 4,7 2,4 2,7 2,9l0 196 0 0z"/>
    </g>
    
    <g id="svg-guardar">
        <path class="fil0" d="M399 178c-3,-5 -9,-8 -16,-8l-20 0c0,-12 -10,-21 -21,-21l-21 0 0 -21c0,-11 -9,-20 -21,-20l-10 0 0 -42c0,-5 -5,-10 -10,-10l-208 0c-5,0 -10,5 -10,10l0 42 -10 0c-12,0 -21,9 -21,20l0 249c0,12 9,21 21,21l41 0 207 0 42 0c10,0 18,-7 20,-16l42 -187c1,-6 -1,-12 -5,-17zm-337 199l-10 0 0 -249 10 0 0 249zm230 -101l-73 73c-4,4 -10,4 -14,0l-73 -73c-3,-3 -4,-7 -2,-11 1,-4 5,-6 9,-6l26 0 0 -89 -31 0c-9,0 -18,7 -20,16 0,0 -42,190 -42,191l0 0 0 -311 208 0 0 83c-12,0 -21,9 -21,21l0 0 0 89 25 0c5,0 8,2 10,6 2,4 1,8 -2,11zm8 -127l-10 0 0 -21 10 0 0 21zm-197 -47c0,-6 4,-11 10,-11l124 0c5,0 10,5 10,11 0,6 -5,10 -10,10l-124 0c-6,0 -10,-4 -10,-10zm134 52l-124 0c-6,0 -10,-4 -10,-10 0,-6 4,-10 10,-10l124 0c5,0 10,4 10,10 0,6 -5,10 -10,10z"/>
    </g>
    
    
    <g id="svg-facebook">
        <path id="Facebook" class="fil0" d="M166 119c0,8 0,46 0,46l-35 0 0 57 35 0 0 170 70 0 0 -170 47 0c0,0 5,-27 7,-57 -6,0 -54,0 -54,0 0,0 0,-33 0,-39 0,-6 8,-14 15,-14 8,0 24,0 39,0 0,-8 0,-34 0,-59 -20,0 -42,0 -52,0 -74,0 -72,57 -72,66z"/>
    </g>
    
    <g id="svg-twitter">
        <path class="fil0" d="M401 122c-1,-2 -3,-2 -5,-1 -7,5 -16,7 -23,8 9,-7 19,-19 19,-34 0,-2 0,-3 -2,-4 -1,0 -3,0 -4,1 -14,10 -34,15 -41,17 -5,-9 -23,-34 -54,-34 -2,0 -3,0 -5,1 -38,3 -57,25 -66,44 -5,11 -8,22 -9,29 -6,-5 -16,-13 -32,-21 -24,-12 -65,-27 -125,-27 -6,0 -12,0 -18,1 -1,0 -3,0 -3,2 -1,1 -1,2 -1,3 13,27 41,43 59,50 -10,3 -21,8 -24,16 -2,4 -2,11 5,18 11,11 24,17 36,21 -9,2 -16,5 -19,9 -1,2 -2,5 2,10 15,21 51,29 67,30 -2,5 -6,13 -15,20 -17,17 -45,26 -79,26 0,0 0,0 0,0 -10,0 -20,-1 -30,-2 -2,0 -4,1 -5,2 0,2 0,4 1,5 46,43 98,66 151,66 0,0 0,0 0,0 57,0 114,-28 151,-76 33,-42 46,-93 35,-140 7,-3 23,-12 35,-35 1,-2 1,-4 -1,-5z"/>
    </g>
    
    <g id="svg-gplus">
        <path class="fil0" d="M282 46l-84 0c-38,0 -64,8 -88,28 -18,16 -30,39 -30,62 0,35 27,73 77,73 5,0 10,-1 15,-1l-1 2c-2,4 -3,9 -3,16 0,14 6,22 13,30l0 2 -1 0c-21,1 -59,4 -87,21 -33,20 -36,48 -36,56 0,33 31,67 100,67 80,0 122,-44 122,-88 0,-32 -19,-48 -39,-65l-17 -13c-5,-4 -12,-10 -12,-20 0,-10 7,-16 12,-22l1 0c18,-15 39,-31 39,-66 0,-36 -22,-54 -33,-63l28 0c1,0 1,0 1,0l24 -16c1,0 1,-1 1,-2 0,0 -1,-1 -2,-1zm-102 336c-49,0 -82,-22 -82,-56 0,-22 13,-38 40,-48 21,-7 48,-7 49,-7 4,0 6,0 10,0 34,24 51,37 51,61 0,31 -26,50 -68,50zm-1 -186c-41,0 -58,-54 -58,-83 0,-14 4,-26 10,-34 8,-9 21,-15 33,-15 37,0 58,50 58,85 0,5 0,22 -11,34 -8,8 -21,13 -32,13z"/>
        <path class="fil0" d="M401 212l-44 0 0 -44c0,-1 -1,-2 -2,-2l-19 0c-1,0 -2,1 -2,2l0 44 -45 0c-1,0 -2,1 -2,2l0 20c0,1 1,1 2,1l45 0 0 45c0,1 1,2 2,2l19 0c1,0 2,-1 2,-2l0 -45 44 0c1,0 2,0 2,-1l0 -20c0,-1 -1,-2 -2,-2z"/>
    </g>
       
    <g id="svg-vista-codigo">
        <path class="fil0" d="M37 229c0,4 2,9 5,11l92 74c2,1 5,2 7,2 4,0 8,-3 10,-7 4,-8 2,-17 -4,-22l-76 -60 76 -61c6,-5 8,-14 4,-22 -3,-7 -11,-9 -17,-5l-92 74c-3,3 -5,7 -5,11 0,1 0,2 0,3 0,0 0,1 0,2z"/>
        <path class="fil0" d="M275 309c3,5 7,8 11,8 2,0 4,-1 6,-3l92 -73c4,-3 5,-7 6,-11 0,-1 0,-2 0,-3 0,-1 0,-1 0,-2 -1,-5 -2,-9 -6,-11l-92 -74c-5,-4 -13,-2 -17,5 -3,7 -2,17 4,22l76 60 -76 61c-6,5 -7,14 -4,21z"/>
        <path class="fil0" d="M193 315c1,1 2,1 3,1 5,0 10,-4 12,-11l35 -148c2,-8 -2,-17 -8,-19 -6,-3 -13,2 -15,10l-36 148c-2,8 2,17 9,19z"/>
    </g>       
    
    <g id="svg-vista-preview">
        <path class="fil0" d="M307 138c0,25 20,45 45,45 25,0 45,-20 45,-45 0,-25 -20,-45 -45,-45 -25,0 -45,20 -45,45zm90 224l-359 0 90 -239 119 149 60 -44 90 134z"/>
    </g>    
    
    <g id="svg-vista-columnas">
<!--        <path class="fil0" d="M-22 237c1,2 2,4 4,5l55 35c1,1 2,1 4,1 2,0 4,-1 6,-3 2,-4 1,-8 -3,-10l-45 -29 45 -29c4,-2 5,-6 3,-10 -2,-3 -7,-4 -10,-2l-55 35c-2,1 -3,3 -4,5 0,0 0,1 0,1 0,0 0,1 0,1z"/>
        <path class="fil0" d="M121 275c1,2 4,4 6,4 2,0 3,-1 4,-2l55 -34c2,-1 3,-3 3,-5 1,-1 0,-1 0,-2 0,0 1,0 0,-1 0,-2 -1,-4 -3,-5l-55 -35c-3,-2 -8,-1 -10,3 -2,3 -1,8 2,10l46 28 -46 29c-3,2 -4,7 -2,10z"/>
        <path class="fil0" d="M71 278c1,0 2,0 3,0 3,0 6,-2 7,-5l21 -70c1,-4 -1,-8 -5,-9 -4,-1 -8,1 -9,5l-21 70c-2,4 1,8 4,9z"/>
        <rect class="fil0" x="215" y="59" width="11.58" height="325.77"/>
        <path class="fil0" d="M393 171c0,13 10,24 23,24 13,0 24,-11 24,-24 0,-12 -11,-23 -24,-23 -13,0 -23,11 -23,23zm47 118l-188 0 47 -125 63 78 31 -24 47 71z"/> -->
        <path class="fil0" d="M-9 227c1,4 3,7 6,9l104 65c2,2 4,3 7,3 4,0 9,-3 12,-7 4,-6 2,-15 -5,-19l-85 -54 85 -53c7,-4 9,-13 5,-19 -5,-7 -13,-9 -19,-5l-104 65c-3,3 -5,6 -6,10 0,1 0,2 0,2 0,1 0,2 0,3z"/>
        <path class="fil0" d="M166 303c1,0 3,1 4,1 6,0 11,-4 13,-10l40 -131c2,-7 -2,-15 -10,-17 -7,-2 -14,2 -17,9l-39 131c-3,7 2,15 9,17z"/>
        <path class="fil0" d="M388 148c0,17 13,32 29,32 16,0 28,-15 28,-32 0,-18 -12,-33 -28,-33 -16,0 -29,15 -29,33zm57 162l-227 0 57 -173 76 108 37 -33 57 98z"/>
        
    </g>
    
    <g id="svg-vista-filas">
<!--        <path class="fil0" d="M37 112c0,4 2,7 5,9l92 58c2,1 5,2 7,2 4,0 8,-2 10,-6 4,-6 2,-13 -4,-17l-76 -48 76 -47c6,-4 8,-12 4,-17 -3,-6 -11,-8 -17,-4l-92 58c-3,2 -5,5 -5,8 0,1 0,2 0,2 0,1 0,2 0,2z"/>
        <path class="fil0" d="M275 176c3,3 7,5 11,5 2,0 4,0 6,-1l92 -58c4,-2 5,-6 6,-9 0,-1 0,-1 0,-2 0,-1 0,-1 0,-2 -1,-4 -2,-7 -6,-9l-92 -58c-5,-3 -13,-2 -17,4 -3,6 -2,14 4,17l76 48 -76 48c-6,3 -7,11 -4,17z"/>
        <path class="fil0" d="M193 180c1,1 2,1 3,1 5,0 10,-4 12,-9l35 -116c2,-7 -2,-14 -8,-16 -6,-2 -13,2 -15,9l-36 116c-2,7 2,13 9,15z"/>
        <path class="fil0" d="M263 278c0,15 13,28 28,28 15,0 28,-13 28,-28 0,-15 -13,-28 -28,-28 -15,0 -28,13 -28,28zm56 139l-223 0 56 -148 74 93 37 -28 56 83z"/>
        <rect class="fil0" x="33" y="215" width="363.8" height="14.88"/>
-->
        <path class="fil0" d="M37 117c0,3 2,6 5,8l92 58c2,1 5,2 7,2 4,0 8,-2 10,-6 4,-5 2,-13 -4,-17l-76 -47 76 -48c6,-4 8,-11 4,-17 -3,-6 -11,-8 -17,-4l-92 58c-3,2 -5,5 -5,9 0,0 0,1 0,2 0,0 0,1 0,2z"/>
        <path class="fil0" d="M275 180c3,4 7,6 11,6 2,0 4,-1 6,-2l92 -58c4,-2 5,-5 6,-9 0,-1 0,-1 0,-2 0,-1 0,-1 0,-2 -1,-3 -2,-7 -6,-9l-92 -57c-5,-4 -13,-2 -17,3 -3,6 -2,14 4,17l76 48 -76 48c-6,4 -7,11 -4,17z"/>
        <path class="fil0" d="M193 185c1,0 2,0 3,0 5,0 10,-3 12,-9l35 -116c2,-7 -2,-13 -8,-15 -6,-2 -13,1 -15,8l-36 116c-2,7 2,14 9,16z"/>
        <path class="fil0" d="M286 271c0,16 16,29 37,29 21,0 37,-13 37,-29 0,-16 -16,-29 -37,-29 -21,0 -37,13 -37,29zm74 146l-299 0 75 -156 100 98 50 -29 74 87z"/>
        
    </g>
    
    <g id="svg-buscar">
		<path class="fil0" d="M258 336c0,2 0,3 0,5 0,14 -7,22 -22,22 -24,0 -37,0 -61,0 -31,0 -62,0 -92,0 -22,0 -33,-10 -33,-33 1,-69 1,-139 1,-209 0,-22 11,-33 32,-33 56,0 111,0 166,0 4,0 9,-2 9,5 0,5 -1,8 -7,8 -13,0 -26,0 -39,0 -42,0 -84,0 -127,0 -11,0 -18,5 -18,14 0,10 8,18 18,18 19,1 108,1 108,1 0,0 -33,27 -36,69 -4,47 31,111 101,111 0,0 0,20 0,22z"/>
		<path class="fil0" d="M278 116c73,0 117,77 80,140 -4,8 -4,12 3,18 9,8 17,16 25,25 2,2 4,6 4,9 -2,20 -20,36 -39,35 -4,-1 -8,-3 -11,-5 -11,-11 -21,-23 -32,-33 -3,-3 -9,-5 -13,-4 -56,10 -108,-33 -110,-90 -2,-52 42,-97 93,-95zm0 26c-36,-1 -67,30 -67,67 0,36 30,67 67,67 36,0 68,-30 67,-67 -1,-39 -29,-66 -67,-67z"/>
    </g>    
    
    <g id="svg-php">
		<path class="fil0" d="M90 189c12,0 21,2 25,7 4,5 5,13 3,24 -2,12 -7,21 -13,26 -7,5 -17,7 -31,7l-20 0 13 -64 23 0zm-82 130l33 0 8 -41 29 0c13,0 23,-2 31,-4 9,-3 16,-7 23,-14 5,-5 10,-11 13,-17 4,-6 6,-13 8,-20 3,-19 1,-33 -8,-43 -9,-10 -23,-15 -43,-15l-64 0 -30 154z"/>
		<path class="fil0" d="M177 124l34 0 -8 41 29 0c19,0 32,3 39,9 7,7 9,18 6,32l-14 72 -33 0 13 -68c1,-8 1,-13 -2,-16 -2,-3 -8,-4 -17,-4l-26 0 -17 88 -34 0 30 -154z"/>
		<path class="fil0" d="M351 189c13,0 22,2 26,7 4,5 5,13 3,24 -2,12 -7,21 -14,26 -6,5 -16,7 -30,7l-20 0 12 -64 23 0zm-81 130l33 0 8 -41 29 0c13,0 23,-2 31,-4 8,-3 16,-7 22,-14 6,-5 11,-11 14,-17 4,-6 6,-13 8,-20 3,-19 0,-33 -9,-43 -8,-10 -23,-15 -42,-15l-64 0 -30 154z"/>
    </g>
    
    <g id="svg-cpp">
		<polygon class="fil0" points="384,180 359,180 359,205 334,205 334,230 359,230 359,255 384,255 384,230 409,230 409,205 384,205 "/>
		<polygon class="fil0" points="292,180 267,180 267,205 242,205 242,230 267,230 267,255 292,255 292,230 317,230 317,205 292,205 "/>
		<path class="fil0" d="M219 252c-11,20 -37,37 -61,37 -35,0 -68,-38 -68,-73 0,-35 33,-73 68,-73 24,0 49,17 60,36l52 -28c-22,-38 -64,-64 -112,-64 -71,0 -129,58 -129,129 0,24 6,46 17,64 23,39 64,65 112,65 48,0 90,-26 113,-65l-52 -28z"/>
    </g>
    
    <g id="svg-js">
	   <path id="s" class="fil0" d="M205 299l39 -23c10,17 23,29 46,29 20,0 32,-10 32,-23 0,-16 -13,-22 -34,-32l-12 -5c-34,-14 -57,-32 -57,-71 0,-35 27,-62 70,-62 30,0 51,10 67,37l-37 24c-8,-15 -17,-20 -30,-20 -14,0 -23,9 -23,20 0,14 9,20 29,29l12 5c40,17 63,35 63,74 0,43 -34,66 -79,66 -44,0 -72,-21 -86,-48l0 0zm0 0l0 0 0 0z"/>
	   <path id="j" class="fil0" d="M38 304l38 -24c8,14 15,25 31,25 15,0 25,-6 25,-30l0 -161 47 0 0 162c0,49 -28,71 -70,71 -38,0 -60,-20 -71,-43l0 0zm0 0l0 0 0 0z"/>
    </g>
    
    <g id="svg-css">
        <path class="fil0" d="M319 64l-31 0 32 35 0 17 -66 0 0 -20 32 0 -32 -34 0 -17 65 0 0 19 0 0zm-78 0l-31 0 32 35 0 17 -66 0 0 -20 32 0 -32 -34 0 -17 65 0 0 19 0 0zm-78 1l-33 0 0 31 33 0 0 20 -57 0 0 -71 57 0 0 20 0 0z"/>
        <path class="fil0" d="M273 305l0 -5 5 -56 0 -1 8 -81 0 -8 -74 0 0 0 0 0 -74 0 1 8 1 15 1 7 0 0 71 0 0 0 42 0 -3 30 -39 0 -35 0 1 8 1 15 1 6 0 0 32 0 37 1 -4 38 -33 9 -33 -9 -2 -24 -16 0 -13 0 4 47 60 16 61 -16zm0 0l0 0 0 0z"/>
        <polygon class="fil0" points="80,73 44,73 72,366 213,414 354,365 383,73 347,73 347,96 357,96 330,353 213,390 96,352 69,96 80,96 "/>
<!--		<path class="fil0" d="M357 69l-42 0 44 48 0 22 -90 0 0 -26 43 0 -43 -48 0 -22 88 0 0 26 0 0zm-106 0l-42 0 44 48 0 22 -91 0 0 -26 44 0 -44 -48 0 -22 89 0 0 26 0 0zm-106 1l-45 0 0 42 45 0 0 27 -77 0 0 -96 77 0 0 27 0 0zm0 0z"/>
		<polygon class="fil0" points="205,302 205,302 162,302 162,302 161,293 159,273 158,262 205,262 258,262 262,222 206,222 205,222 110,222 109,222 109,213 107,192 106,182 205,182 206,182 305,182 304,192 295,300 294,302 288,378 287,384 206,407 206,407 206,407 205,407 124,384 118,322 137,322 158,322 161,354 206,366 206,366 206,366 250,354 255,302 "/>
		-->
    </g>
    
    <g id="svg-prev">
        <path class="fil0 str0" d="M287 105c13,0 23,10 24,22l1 192c0,11 -11,22 -23,22 -3,0 -6,-1 -8,-2 -1,0 -1,0 -1,0l-164 -95c-9,-3 -14,-11 -14,-20 0,-9 5,-17 13,-20l164 -97c0,0 0,0 0,-1 3,-1 6,-1 8,-1zm2 224c5,0 11,-4 11,-10l-1 -192c0,-6 -6,-10 -12,-10 -1,0 -2,0 -3,0l-163 97c0,0 -1,0 -1,0 -4,2 -6,5 -6,10 0,3 1,8 6,9 1,1 1,1 1,1l164 94c1,1 2,1 4,1z"/>
    </g>

    <g id="svg-next">
        <path class="fil0 str0" d="M138 341c-13,0 -23,-10 -23,-22l0 -192c0,-12 10,-22 23,-22 3,0 5,1 8,2 0,0 0,0 1,0l163 96c8,3 14,11 14,20 0,10 -5,17 -14,21l-163 95c-1,0 -1,1 -1,1 -3,1 -6,1 -8,1zm0 -224c-6,0 -12,4 -12,10l0 192c0,6 6,10 12,10 1,0 2,0 3,0l164 -96c0,0 0,0 1,0 4,-2 6,-5 6,-10 0,-3 -2,-7 -7,-9 0,0 0,-1 0,-1l-164 -95c-1,-1 -2,-1 -3,-1z"/>
    </g>
        
</svg>
