<svg xmlns="http://www.w3.org/2000/svg" xmlns:xlink="http://www.w3.org/1999/xlink" xml:space="preserve" width="58" height="58" version="1.1" 
     style="shape-rendering:geometricPrecision; text-rendering:geometricPrecision; image-rendering:optimizeQuality; fill-rule:evenodd; clip-rule:evenodd" 
     
     viewBox="-10 -10 80 80"> 
    
    <defs>
        <style type="text/css">
            .fil0 {fill:#FFF; }
            .fil1 {fill:#000; }
            .str0 {stroke:#FFF; stroke-width:2.15;} /* nomes el prev y el next */
            g { display: none; position:absolute; }
            g:target { display:inline; }
        </style>                
    </defs>
    
    <g id="svg-indice">
        <path class="fil0" d="M52 28c0,1 -1,1 -2,1 0,0 0,0 -1,0l-19 -12 -19 12c-1,1 -2,0 -3,-1 -1,-1 0,-2 1,-3l20 -12c1,-1 2,-1 2,0l21 12c1,1 1,2 0,3zm-7 2l-14 -9c0,0 -1,0 -2,0l-14 9c0,0 -1,1 -1,2l0 14c0,1 1,2 3,2l7 0c1,0 2,-1 2,-2l0 -7c0,-2 2,-4 4,-4 2,0 4,2 4,4l0 7c0,1 1,2 2,2l8 0c1,0 2,-1 2,-2l0 -14c0,-1 0,-2 -1,-2z"/>
    </g>

    <g id="svg-sub-indice">
        <path class="fil0" d="M45 28l-7 7c-3,4 -9,4 -13,0 -1,0 -1,-1 -2,-2l3 -3c1,0 1,0 1,0 0,0 1,1 1,2 2,2 5,2 7,0l7 -7c2,-2 2,-5 0,-7 -2,-2 -5,-2 -7,0l-2 2c-2,0 -5,-1 -7,0l6 -5c3,-4 10,-4 13,0 4,3 4,10 0,13zm-18 12l-2 2c-2,2 -5,2 -7,0 -2,-2 -2,-5 0,-7l7 -7c2,-2 5,-2 7,0 0,1 1,2 1,2 0,0 0,0 0,0l4 -3c-1,-1 -1,-2 -2,-2 -4,-4 -10,-4 -14,0l-7 7c-3,4 -3,10 0,13 4,4 10,4 14,0l5 -5c-2,1 -4,0 -6,0z"/>
    </g>
  
    <g id="svg-votacion">
        <path class="fil0" d="M18 26c0,2 -1,3 -3,3 4,3 9,10 12,14 9,-12 13,-18 15,-21 2,2 3,5 3,8 0,9 -8,16 -16,16 -9,0 -17,-7 -17,-16 0,-9 8,-16 17,-16 4,0 8,2 12,5 -9,10 -2,1 -14,17 -3,-3 -7,-8 -9,-10l0 0zm27 -7c2,-2 3,-3 6,-7 -3,0 -5,2 -8,4 -3,-4 -9,-7 -14,-7 -12,0 -21,10 -21,21 0,11 9,20 21,20 11,0 20,-9 20,-20 0,-4 -1,-8 -4,-11l0 0z"/>
    </g>
  
    <g id="svg-redes-sociales">
        <rect class="fil0" transform="matrix(1.17046 0.586413 -0.528594 1.14435 18.9545 32.4825)" width="20.4106" height="1.68"/>
        <rect class="fil0" transform="matrix(0.951937 -0.862093 0.862093 0.951937 17.8931 32.2415)" width="20.4106" height="1.68"/>
        <circle class="fil0" cx="17" cy="34" r="6"/>
        <circle class="fil0" cx="39" cy="15" r="6"/>
        <circle class="fil0" cx="43" cy="46" r="6"/>
    </g>

    <g id="svg-marco33">
        <path class="fil0" d="M52 32c0,-1 0,-2 0,-2 0,-13 -10,-23 -22,-23 -12,0 -22,10 -22,23 0,0 0,0 0,1 0,0 8,4 22,4 15,0 22,-3 22,-3zm-44 2c2,10 11,18 22,18 1,0 3,0 4,-1 4,0 7,-2 10,-5 4,-3 6,-6 7,-11 0,0 -7,3 -21,3 -12,0 -22,-4 -22,-4zm14 -5c-4,1 -7,-2 -7,-6 0,-4 3,-8 7,-8 4,-1 8,2 8,6 0,4 -4,8 -8,8z"/>
        <path class="fil0" d="M21 22c0,0 0,0 0,0 0,-1 1,-1 1,-1 0,0 0,1 -1,1l0 0z"/>
        <path class="fil0" d="M22 19c0,0 0,0 0,0 -2,0 -3,1 -3,3 0,1 1,2 2,2 0,0 1,0 1,0 1,0 2,-2 2,-3 0,-1 -1,-2 -2,-2l0 0z"/>
    </g>
  
    <g id="svg-lista">
        <path class="fil0" d="M45 8l-19 0c-1,0 -2,1 -3,2l-11 11c-1,1 -1,2 -1,3l0 24c0,2 2,4 4,4l30 0c2,0 4,-2 4,-4l0 -35c0,-3 -2,-5 -4,-5zm1 40c0,0 -1,1 -1,1l-30 0c-1,0 -1,-1 -1,-1l0 -23 11 0c1,0 2,-1 2,-2l0 -12 18 0c0,0 1,1 1,2l0 35 0 0z"/>
        <path class="fil0" d="M38 31l-16 0c-1,0 -2,1 -2,2 0,1 1,2 2,2l16 0c1,0 2,-1 2,-2 0,-1 -1,-2 -2,-2z"/>
        <path class="fil0" d="M38 24l-6 0c-1,0 -2,0 -2,2 0,1 1,2 2,2l6 0c1,0 2,-1 2,-2 0,-2 -1,-2 -2,-2z"/>
        <path class="fil0" d="M38 16l-6 0c-1,0 -2,1 -2,2 0,2 1,3 2,3l6 0c1,0 2,-1 2,-3 0,-1 -1,-2 -2,-2z"/>
        <path class="fil0" d="M38 39l-16 0c-1,0 -2,1 -2,2 0,1 1,2 2,2l16 0c1,0 2,-1 2,-2 0,-1 -1,-2 -2,-2z"/>
    </g>
    
    <g id="svg-explorar-lab">
        <path class="fil0" d="M45 8l-22 0c-2,0 -4,1 -4,3l3 0c0,0 0,-1 1,-1l22 0c1,0 1,1 1,2l0 30c0,1 0,2 -1,2l-1 0 0 2 1 0c2,0 4,-2 4,-4l0 -30c0,-2 -2,-4 -4,-4z"/>
        <path class="fil0" d="M37 14l-22 0c-2,0 -4,2 -4,4l0 30c0,2 2,4 4,4l22 0c3,0 4,-2 4,-4l0 -30c0,-2 -1,-4 -4,-4zm2 34c0,1 -1,2 -2,2l-22 0c-1,0 -1,-1 -1,-2l0 -30c0,-1 0,-2 1,-2l22 0c1,0 2,1 2,2l0 30z"/>
        <path class="fil0" d="M32 32l-9 0c-1,0 -1,0 -1,1 0,1 0,1 1,1l9 0c1,0 1,0 1,-1 0,-1 0,-1 -1,-1z"/>
        <path class="fil0" d="M19 32c-1,0 -1,0 -1,1 0,1 0,1 1,1 1,0 1,0 1,-1 0,-1 0,-1 -1,-1z"/>
        <path class="fil0" d="M32 37l-9 0c-1,0 -1,0 -1,1 0,1 0,1 1,1l9 0c1,0 1,0 1,-1 0,-1 0,-1 -1,-1z"/>
        <path class="fil0" d="M19 37c-1,0 -1,0 -1,1 0,1 0,1 1,1 1,0 1,0 1,-1 0,-1 0,-1 -1,-1z"/>
        <path class="fil0" d="M32 42l-9 0c-1,0 -1,0 -1,1 0,1 0,1 1,1l9 0c1,0 1,0 1,-1 0,-1 0,-1 -1,-1z"/>
        <path class="fil0" d="M19 42c-1,0 -1,0 -1,1 0,1 0,1 1,1 1,0 1,0 1,-1 0,-1 0,-1 -1,-1z"/>
        <path class="fil0" d="M32 27l-9 0c-1,0 -1,1 -1,1 0,1 0,1 1,1l9 0c1,0 1,0 1,-1 0,0 0,-1 -1,-1z"/>
        <path class="fil0" d="M19 27c-1,0 -1,0 -1,1 0,1 0,1 1,1 1,0 1,0 1,-1 0,-1 0,-1 -1,-1z"/>
        <path class="fil0" d="M32 22l-9 0c-1,0 -1,1 -1,1 0,1 0,1 1,1l9 0c1,0 1,0 1,-1 0,0 0,-1 -1,-1z"/>
        <path class="fil0" d="M19 22c-1,0 -1,1 -1,1 0,1 0,2 1,2 1,0 1,-1 1,-2 0,0 0,-1 -1,-1z"/>
    </g>

    <g id="svg-guardar-cache">
        <path class="fil0" d="M51 20c-1,0 -1,-1 -2,-2l-7 -7c-1,-1 -2,-1 -2,-2 -1,0 -2,0 -3,0l-26 0c0,0 -1,0 -1,0 -1,1 -1,2 -1,2l0 38c0,0 0,1 1,1 0,1 1,1 1,1l38 0c0,0 1,0 1,-1 1,0 1,-1 1,-1l0 -26c0,-1 0,-2 0,-3zm-25 -7c0,0 1,0 1,0 0,-1 0,-1 0,-1l6 0c0,0 0,0 0,1 0,0 1,0 1,0l0 9c0,0 -1,0 -1,1 0,0 0,0 0,0l-6 0c0,0 0,0 0,0 0,-1 -1,-1 -1,-1l0 -9zm15 35l-22 0 0 -11 22 0 0 11zm7 0l-4 0 0 0 0 -12c0,-1 0,-1 -1,-2 0,0 -1,0 -1,0l-24 0c0,0 -1,0 -1,0 -1,1 -1,1 -1,2l0 12 -4 0 0 -36 4 0 0 12c0,1 0,1 1,2 0,0 1,0 1,0l16 0c1,0 2,0 2,0 1,-1 1,-1 1,-2l0 -12c0,0 1,0 1,1 1,0 1,0 1,0l8 8c0,0 0,0 0,1 1,0 1,1 1,1l0 25 0 0z"/>
    </g>
    
    <g id="svg-guardar">
        <path class="fil0" d="M50 25c0,-1 -1,-1 -1,-1l-3 0c0,-2 -1,-3 -2,-3l-2 0 0 -2c0,-1 -2,-2 -3,-2l-1 0 0 -5c0,-1 -1,-1 -1,-1l-24 0c-1,0 -1,0 -1,1l0 5 -1 0c-2,0 -3,1 -3,2l0 28c0,2 1,3 3,3l4 0 24 0 5 0c1,0 2,-1 2,-2l5 -21c0,-1 0,-2 -1,-2zm-38 22l-1 0 0 -28 1 0 0 28zm26 -11l-8 8c-1,1 -1,1 -2,0l-8 -8c0,0 0,-1 0,-1 0,-1 0,-1 1,-1l3 0 0 -10 -4 0c-1,0 -2,1 -2,2 0,0 -5,21 -5,21l0 0 0 -35 24 0 0 9c-2,0 -3,1 -3,3l0 0 0 10 3 0c1,0 1,0 1,1 1,0 1,1 0,1zm1 -15l-1 0 0 -2 1 0 0 2zm-22 -5c0,-1 0,-1 1,-1l14 0c1,0 1,0 1,1 0,1 0,1 -1,1l-14 0c-1,0 -1,0 -1,-1zm15 6l-14 0c-1,0 -1,-1 -1,-1 0,-1 0,-1 1,-1l14 0c1,0 1,0 1,1 0,0 0,1 -1,1z"/>
    </g>
    
    
    <g id="svg-facebook">
        <path class="fil0" d="M24 17c0,1 0,6 0,6l-4 0 0 7 4 0 0 22 9 0 0 -22 6 0c0,0 1,-4 1,-7 -1,0 -7,0 -7,0 0,0 0,-5 0,-5 0,-1 1,-2 2,-2 1,0 3,0 5,0 0,-1 0,-5 0,-8 -2,0 -5,0 -6,0 -10,0 -10,8 -10,9z"/>
    </g>
    
    <g id="svg-twitter">
        <path class="fil0" d="M51 18c0,0 0,0 0,0 -1,0 -2,0 -3,1 1,-1 2,-3 2,-4 0,-1 0,-1 0,-1 0,0 0,0 0,0 -2,1 -4,2 -5,2 -1,-1 -3,-4 -6,-4 -1,0 -1,0 -1,0 -4,1 -7,3 -8,5 0,2 0,3 -1,4 0,-1 -2,-2 -3,-3 -3,-1 -8,-3 -15,-3 0,0 -1,0 -2,0 0,0 0,0 0,1 0,0 0,0 0,0 1,3 4,5 7,6 -2,0 -3,1 -3,2 0,0 0,1 0,2 2,1 3,2 4,2 -1,0 -1,1 -2,1 0,0 0,1 0,1 2,3 6,4 8,4 0,0 0,1 -1,2 -2,2 -6,3 -10,3 0,0 0,0 0,0 -1,0 -2,0 -3,0 0,0 0,0 -1,0 0,0 0,0 1,1 5,5 11,7 17,7 0,0 0,0 0,0 7,0 13,-3 17,-9 4,-4 6,-10 4,-16 1,0 3,-1 4,-4 0,0 0,0 0,0z"/>
    </g>
    
    <g id="svg-gplus">
        <path class="fil0" d="M37 8l-11 0c-5,0 -8,1 -11,4 -2,1 -3,4 -3,7 0,5 3,9 9,9 1,0 1,0 2,0l0 0c0,1 -1,1 -1,2 0,2 1,3 2,4l0 0 0 0c-3,0 -7,1 -11,3 -4,2 -4,6 -4,7 0,4 4,8 12,8 10,0 15,-5 15,-11 0,-4 -2,-6 -5,-8l-2 -1c0,-1 -1,-2 -1,-3 0,-1 1,-2 1,-3l0 0c3,-1 5,-3 5,-8 0,-4 -3,-6 -4,-8l4 0c0,0 0,0 0,0l3 -1c0,-1 0,-1 0,-1 0,0 0,0 0,0zm-13 42c-6,0 -10,-3 -10,-7 0,-3 1,-5 5,-6 2,-1 6,-1 6,-1 0,0 1,0 1,0 4,3 6,4 6,7 0,4 -3,7 -8,7zm0 -23c-5,0 -7,-7 -7,-11 0,-1 0,-3 1,-4 1,-1 2,-2 4,-2 5,0 7,6 7,11 0,0 0,3 -1,4 -1,1 -3,2 -4,2z"/>
        <path class="fil0" d="M51 29l-5 0 0 -6c0,0 0,0 -1,0l-2 0c0,0 0,0 0,0l0 6 -6 0c0,0 0,0 0,0l0 2c0,0 0,0 0,0l6 0 0 6c0,0 0,0 0,0l2 0c1,0 1,0 1,0l0 -6 5 0c0,0 0,0 0,0l0 -2c0,0 0,0 0,0z"/>
    </g>
       
    <g id="svg-vista-codigo">
        <path class="fil0" d="M8 30c0,1 0,1 1,2l11 9c0,0 1,0 1,0 0,0 1,0 1,-1 1,-1 0,-2 0,-3l-10 -7 10 -8c0,0 1,-1 0,-2 0,-1 -1,-1 -2,-1l-11 9c-1,0 -1,1 -1,2 0,0 0,0 0,0 0,0 0,0 0,0z"/>
        <path class="fil0" d="M38 40c0,1 0,1 1,1 0,0 0,0 1,0l11 -9c0,-1 1,-1 1,-2 0,0 0,0 0,0 0,0 0,0 0,0 0,-1 -1,-1 -1,-2l-11 -9c-1,0 -2,0 -2,1 -1,1 -1,2 0,2l9 8 -9 7c-1,1 -1,2 0,3z"/>
        <path class="fil0" d="M27 41c0,0 1,0 1,0 0,0 1,-1 1,-1l5 -19c0,-1 -1,-2 -1,-2 -1,0 -2,0 -2,1l-5 18c0,1 0,3 1,3z"/>
    </g>       
    
    <g id="svg-vista-preview">
        <path class="fil0" d="M42 18c0,4 2,6 5,6 3,0 6,-2 6,-6 0,-3 -3,-5 -6,-5 -3,0 -5,2 -5,5zm11 29l-45 0 11 -30 15 18 8 -5 11 17z"/>
    </g>    
    
    <g id="svg-vista-columnas">
        <path class="fil0" d="M6 31c0,1 0,1 0,1l11 7c1,1 1,1 1,1 1,0 1,-1 2,-1 0,-1 0,-2 -1,-2l-9 -6 9 -6c1,0 1,-1 1,-2 -1,-1 -2,-1 -3,0l-11 7c0,0 0,0 0,1 0,0 0,0 0,0 0,0 0,0 0,0z"/>
        <path class="fil0" d="M25 40c0,0 0,0 0,0 1,0 1,-1 1,-1l5 -15c0,0 0,-1 -1,-1 -1,-1 -2,0 -2,1l-4 14c-1,0 0,1 1,2z"/>
        <path class="fil0" d="M49 23c0,2 1,3 3,3 1,0 3,-1 3,-3 0,-2 -2,-4 -3,-4 -2,0 -3,2 -3,4zm6 17l-25 0 6 -18 9 11 4 -3 6 10z"/>
    </g>
    
    <g id="svg-vista-filas">
        <path class="fil0" d="M8 16c0,0 1,1 1,1l11 7c1,0 1,0 1,0 1,0 1,0 1,-1 1,0 1,-1 0,-2l-9 -6 9 -5c1,-1 1,-2 0,-3 0,0 -1,0 -2,0l-11 7c0,0 -1,1 -1,1 0,0 0,0 0,0 0,1 0,1 0,1z"/>
        <path class="fil0" d="M38 24c0,0 0,0 1,0 0,0 1,0 1,0l11 -7c1,0 1,-1 1,-1 0,0 0,0 0,0 0,-1 0,-1 0,-1 0,0 0,-1 -1,-1l-11 -7c-1,0 -2,0 -2,1 -1,0 -1,1 0,2l10 6 -10 5c-1,1 -1,2 0,3z"/>
        <path class="fil0" d="M27 24c1,0 1,0 1,0 1,0 1,0 1,-1l5 -14c0,-1 0,-2 -1,-2 -1,0 -2,0 -2,1l-5 14c0,1 1,2 1,2z"/>
        <path class="fil0" d="M39 35c0,2 2,3 5,3 2,0 4,-1 4,-3 0,-2 -2,-4 -4,-4 -3,0 -5,2 -5,4zm9 18l-37 0 9 -19 13 12 6 -4 9 11z"/>
    </g>
	
	<g id="svg-vista-modocabecera">
		<path class="fil0" d="M6 21c0,1 0,1 0,1l13 8c0,0 1,1 1,1 1,0 1,-1 1,-1 1,-1 1,-2 0,-3l-11 -6 11 -7c1,0 1,-1 0,-2 0,-1 -1,-1 -2,-1l-13 8c0,1 0,1 0,2 0,0 0,0 0,0 0,0 0,0 0,0z"/>
		<path class="fil0" d="M39 30c0,0 0,1 1,1 0,0 1,0 1,-1l13 -8c0,0 0,0 0,-1 0,0 0,0 0,0 0,0 0,0 0,0 0,-1 0,-1 0,-2l-13 -8c-1,0 -2,0 -2,1 -1,1 -1,2 0,2l11 7 -11 6c-1,1 -1,2 0,3z"/>
		<path class="fil0" d="M27 30c0,1 0,1 1,1 0,0 1,-1 1,-2l5 -16c0,-1 0,-2 -1,-2 -1,0 -2,0 -2,1l-5 16c0,1 0,2 1,2z"/>
		<rect class="fil0" x="8" y="41" width="43.7643" height="10.6764"/>
		<path class="fil1" d="M13 48l2 0c-1,1 -1,1 -1,2 -1,0 -2,0 -2,0 -1,0 -2,0 -3,-1 0,0 0,-1 0,-2 0,-1 0,-2 0,-3 1,0 2,-1 3,-1 1,0 1,0 2,1 0,0 0,1 1,1l-2 1c0,-1 0,-1 0,-1 -1,0 -1,-1 -1,-1 -1,0 -1,1 -2,1 0,0 0,1 0,2 0,1 0,1 0,2 1,0 1,0 2,0 0,0 0,0 1,0 0,0 0,-1 0,-1z"/>
		<path class="fil1" d="M17 47l-1 0c0,-1 0,-1 0,-2 1,0 1,0 2,0 0,0 1,0 1,0 0,0 1,1 1,1 0,0 0,0 0,1l0 2c0,0 0,0 0,1 0,0 0,0 0,0l-1 0c0,0 0,0 0,0 0,0 0,0 0,0 -1,0 -1,0 -1,0 0,0 -1,0 -1,0 0,0 -1,0 -1,0 0,0 -1,-1 -1,-1 0,0 0,-1 1,-1 0,0 0,0 0,0 0,-1 1,-1 1,-1 1,0 1,0 2,0l0 0c0,0 -1,-1 -1,-1 0,0 0,0 0,0 -1,0 -1,0 -1,0 0,0 0,1 0,1zm2 1c-1,0 -1,0 -1,0 -1,0 -1,0 -1,0 0,0 0,1 0,1 0,0 0,0 0,0 0,0 0,0 0,0 1,0 1,0 1,0 0,0 0,0 0,0 1,0 1,-1 1,-1l0 0z"/>
		<path class="fil1" d="M21 50l0 -7 1 0 0 3c1,-1 1,-1 2,-1 0,0 1,0 1,1 1,0 1,1 1,2 0,1 0,1 -1,2 0,0 -1,0 -1,0 0,0 -1,0 -1,0 0,0 0,0 -1,-1l0 1 -1 0zm1 -2c0,0 0,1 1,1 0,0 0,0 1,0 0,0 0,0 0,0 1,0 1,-1 1,-1 0,-1 0,-1 -1,-1 0,-1 0,-1 0,-1 -1,0 -1,0 -1,1 -1,0 -1,0 -1,1z"/>
		<path class="fil1" d="M30 49l1 0c0,0 0,1 -1,1 0,0 0,0 -1,0 -1,0 -1,0 -2,0 0,-1 0,-2 0,-2 0,-1 0,-2 0,-2 1,-1 1,-1 2,-1 1,0 1,0 2,1 0,0 0,1 0,2l-3 0c0,1 0,1 0,1 1,0 1,0 1,0 0,0 0,0 1,0 0,0 0,0 0,0zm0 -2c0,0 0,0 0,-1 0,0 -1,0 -1,0 0,0 0,0 -1,0 0,1 0,1 0,1l2 0z"/>
		<path class="fil1" d="M37 47l-1 0c-1,0 -1,-1 -1,-1 0,0 0,0 0,0 -1,0 -1,0 -1,1 0,0 0,0 0,1 0,0 0,1 0,1 0,0 0,0 1,0 0,0 0,0 0,0 0,0 1,0 1,-1l1 1c0,0 -1,1 -1,1 0,0 -1,0 -1,0 -1,0 -2,0 -2,0 -1,-1 -1,-1 -1,-2 0,-1 0,-2 1,-2 0,-1 1,-1 2,-1 0,0 1,0 1,1 0,0 1,0 1,1z"/>
		<path class="fil1" d="M41 49l1 0c0,0 0,1 -1,1 0,0 -1,0 -1,0 -1,0 -2,0 -2,0 0,-1 -1,-2 -1,-2 0,-1 1,-2 1,-2 1,-1 1,-1 2,-1 0,0 1,0 2,1 0,0 0,1 0,2l-3 0c0,1 0,1 0,1 0,0 1,0 1,0 0,0 0,0 0,0 1,0 1,0 1,0zm0 -2c0,0 0,0 0,-1 -1,0 -1,0 -1,0 0,0 -1,0 -1,0 0,1 0,1 0,1l2 0z"/>
		<path class="fil1" d="M44 50l-1 0 0 -5 1 0 0 1c1,0 1,-1 1,-1 0,0 0,0 1,0 0,0 0,0 0,0l0 2c0,-1 0,-1 -1,-1 0,0 0,0 0,0 0,1 0,1 0,1 0,0 -1,1 -1,2l0 1z"/>
		<path class="fil1" d="M48 47l-1 0c0,-1 0,-1 0,-2 1,0 1,0 2,0 1,0 1,0 1,0 1,0 1,1 1,1 0,0 0,0 0,1l0 2c0,0 0,0 0,1 0,0 0,0 0,0l-1 0c0,0 0,0 0,0 0,0 0,0 0,0 0,0 -1,0 -1,0 0,0 0,0 -1,0 0,0 -1,0 -1,0 0,0 0,-1 0,-1 0,0 0,-1 0,-1 0,0 0,0 0,0 1,-1 1,-1 1,-1 1,0 2,0 2,0l0 0c0,0 0,-1 0,-1 -1,0 -1,0 -1,0 0,0 -1,0 -1,0 0,0 0,1 0,1zm2 1c0,0 -1,0 -1,0 0,0 -1,0 -1,0 0,0 0,1 0,1 0,0 0,0 0,0 0,0 0,0 1,0 0,0 0,0 0,0 1,0 1,0 1,0 0,0 0,-1 0,-1l0 0z"/>
	</g>
	
    
    <g id="svg-buscar">
        <path class="fil0" d="M35 44c0,0 0,0 0,1 0,1 -1,2 -3,2 -3,0 -5,0 -8,0 -3,0 -7,0 -11,0 -3,0 -4,-1 -4,-4 0,-8 0,-17 0,-26 0,-3 1,-4 4,-4 7,0 14,0 21,0 0,0 1,0 1,1 0,0 0,1 -1,1 -2,0 -3,0 -5,0 -5,0 -11,0 -16,0 -1,0 -2,0 -2,1 0,2 1,3 2,3 2,0 14,0 14,0 0,0 -4,3 -5,8 0,6 4,14 13,14 0,0 0,3 0,3z"/>
        <path class="fil0" d="M37 16c9,1 15,10 10,18 0,1 0,2 1,2 1,1 2,2 3,3 0,1 0,1 0,2 0,2 -2,4 -5,4 0,0 -1,0 -1,-1 -1,-1 -3,-3 -4,-4 0,0 -1,0 -2,0 -7,1 -13,-4 -13,-12 -1,-6 5,-12 11,-12zm0 4c-4,0 -8,3 -8,8 0,5 4,8 8,9 5,0 9,-4 9,-9 0,-5 -4,-8 -9,-8z"/>
    </g>    
    
    <g id="svg-php">
        <path class="fil0" d="M16 27c2,0 3,0 3,0 1,1 1,2 1,3 -1,1 -1,2 -2,3 -1,1 -2,1 -4,1l-2 0 2 -7 2 0zm-9 14l4 0 1 -4 3 0c1,0 3,-1 3,-1 2,0 2,-1 3,-1 1,-1 1,-2 2,-2 0,-1 0,-2 1,-3 0,-2 0,-3 -1,-5 -1,-1 -3,-1 -5,-1l-8 0 -3 17z"/>
        <path class="fil0" d="M26 19l4 0 -1 5 4 0c2,0 3,0 4,1 1,1 1,2 1,3l-2 9 -4 0 2 -8c0,-1 0,-2 0,-2 -1,0 -1,0 -2,0l-3 0 -2 10 -4 0 3 -18z"/>
        <path class="fil0" d="M46 27c2,0 3,0 3,0 1,1 1,2 0,3 0,1 0,2 -1,3 -1,1 -2,1 -4,1l-2 0 1 -7 3 0zm-9 14l4 0 1 -4 3 0c1,0 2,-1 3,-1 1,0 2,-1 3,-1 1,-1 1,-2 2,-2 0,-1 0,-2 0,-3 1,-2 0,-3 -1,-5 -1,-1 -2,-1 -4,-1l-8 0 -3 17z"/>
    </g>
    
    <g id="svg-cpp">
        <polygon class="fil0" points="50,26 47,26 47,29 44,29 44,31 47,31 47,34 50,34 50,31 52,31 52,29 50,29 "/>
        <polygon class="fil0" points="39,26 36,26 36,29 34,29 34,31 36,31 36,34 39,34 39,31 42,31 42,29 39,29 "/>
        <path class="fil0" d="M31 34c-1,2 -4,4 -7,4 -4,0 -8,-4 -8,-8 0,-4 4,-9 8,-9 3,0 6,2 7,5l6 -4c-3,-4 -8,-7 -13,-7 -8,0 -15,7 -15,15 0,2 1,5 2,7 3,4 8,7 13,7 5,0 10,-3 13,-7l-6 -3z"/>
    </g>
    
    <g id="svg-js">
        <path class="fil0" d="M30 38l5 -3c1,2 3,4 5,4 3,0 4,-1 4,-3 0,-2 -1,-2 -4,-4l-1 0c-4,-2 -7,-4 -7,-8 0,-5 3,-8 8,-8 4,0 6,1 8,5l-4 2c-1,-1 -2,-2 -4,-2 -1,0 -3,1 -3,2 0,2 2,3 4,4l1 0c5,2 8,5 8,9 0,5 -4,8 -10,8 -5,0 -8,-3 -10,-6l0 0zm0 0l0 0 0 0z"/>
        <path class="fil0" d="M11 39l4 -3c1,2 2,3 4,3 2,0 3,-1 3,-4l0 -18 5 0 0 18c0,6 -3,9 -8,9 -4,0 -7,-3 -8,-5l0 0zm0 0l0 0 0 0z"/>
    </g>
    
    <g id="svg-css">
        <path class="fil0" d="M43 10l-4 0 4 4 0 2 -8 0 0 -2 4 0 -4 -5 0 -2 8 0 0 3 0 0zm-10 0l-4 0 4 4 0 2 -8 0 0 -2 4 0 -4 -5 0 -2 8 0 0 3 0 0zm-10 0l-4 0 0 4 4 0 0 2 -7 0 0 -9 7 0 0 3 0 0z"/>
        <path class="fil0" d="M37 39l0 0 1 -7 0 0 1 -10 0 -1 -9 0 0 0 0 0 -10 0 0 1 1 2 0 0 0 0 9 0 0 0 5 0 -1 4 -4 0 -5 0 0 1 0 2 1 1 0 0 4 0 4 0 0 5 -4 1 -5 -1 0 -3 -2 0 -1 0 0 5 8 2 7 -2zm0 0l0 0 0 0z"/>
        <polygon class="fil0" points="13,11 9,11 12,47 30,53 47,47 51,11 46,11 46,14 47,14 44,45 30,50 15,45 12,14 13,14 "/>
    </g>
    
    <g id="svg-prev">
        <path class="fil0 str0" d="M39 18c1,0 2,1 2,2l0 21c0,1 -1,2 -2,2 -1,0 -1,0 -1,0 0,0 0,0 0,0l-18 -11c-1,0 -1,-1 -1,-2 0,-1 0,-2 1,-2l18 -10c0,0 0,0 0,0 0,0 0,0 1,0zm0 24c0,0 1,-1 1,-1l0 -21c0,-1 -1,-1 -1,-1 0,0 -1,0 -1,0l-17 10c0,0 0,0 0,0 -1,0 -1,1 -1,1 0,1 0,1 1,1 0,0 0,0 0,0l17 11c1,0 1,0 1,0z"/>
    </g>

    <g id="svg-next">
        <path class="fil0 str0" d="M21 43c-1,0 -2,-1 -2,-2l0 -21c0,-1 1,-2 2,-2 0,0 1,0 1,0 0,0 0,0 0,0l18 10c1,0 1,1 1,2 0,1 0,2 -1,2l-18 11c0,0 0,0 0,0 0,0 0,0 -1,0zm0 -24c0,0 -1,0 -1,1l0 21c0,0 1,1 1,1 0,0 1,0 1,0l17 -11c0,0 0,0 0,0 1,0 1,0 1,-1 0,0 0,-1 -1,-1 0,0 0,0 0,0l-17 -10c-1,0 -1,0 -1,0z"/>
    </g>
    
    <g id="svg-logo">
        <path class="fil0" d="M30 14c4,0 7,1 10,4 6,-2 4,-6 2,-10 13,7 4,14 2,15 1,1 1,3 1,6 0,4 -2,8 -5,11 -2,8 -5,14 -15,10l-2 2c-2,-2 -3,-5 -3,-9 2,2 4,4 7,4l-1 2c5,1 9,-1 9,-7 -2,1 -4,1 -5,1 -9,0 -16,-6 -16,-14 0,-3 0,-5 1,-6 -2,-1 -10,-8 2,-15 -2,4 -4,8 2,10 3,-3 7,-4 11,-4zm-11 9c4,-1 9,6 9,8 0,3 -7,4 -9,3 -3,-1 -3,-9 0,-11zm21 0c-4,-1 -8,6 -8,8 0,3 7,4 9,3 2,-1 3,-9 -1,-11z"/>
        <ellipse class="fil0" cx="36" cy="31" rx="2" ry="1"/>
        <ellipse class="fil0" cx="24" cy="31" rx="2" ry="1"/>
    </g>
            
    <g id="svg-pantalla-completa">
        <path class="fil0" d="M12 35c0,0 -1,0 -2,0 -1,0 -1,1 -1,2l0 12c0,1 1,2 2,2l12 0c1,0 2,0 2,-1 0,-1 0,-2 0,-2l-13 -13z"/>
        <path class="fil0" d="M50 35c0,0 -1,0 -2,0l-12 13c-1,0 -1,1 -1,2 1,1 1,1 2,1l13 0c1,0 1,-1 1,-2l0 -12c0,-1 0,-2 -1,-2z"/>
        <path class="fil0" d="M50 8l-13 0c-1,0 -1,1 -2,2 0,0 0,1 1,2l12 12c1,0 1,1 2,1 0,0 0,0 0,0 1,-1 1,-1 1,-2l0 -13c0,-1 0,-2 -1,-2z"/>
        <path class="fil0" d="M10 24c1,1 1,1 2,0l12 -12c1,-1 1,-2 1,-2 0,-1 -1,-2 -2,-2l-12 0c-1,0 -2,1 -2,2l0 13c0,1 0,1 1,1z"/>
    </g>        
                
    <g id="svg-restaurar-pantalla">
        <path class="fil0" d="M22 51c0,0 1,1 2,0 1,0 1,-1 1,-1l0 -13c0,-1 -1,-2 -2,-2l-12 0c-1,0 -2,0 -2,1 0,1 0,2 0,2l13 13z"/>
        <path class="fil0" d="M36 51c1,1 2,0 3,0l12 -13c1,0 1,-1 1,-2 -1,-1 -1,-1 -2,-1l-13 0c-1,0 -2,1 -2,2l0 13c0,0 1,1 1,1z"/>
        <path class="fil0" d="M11 25l12 0c1,0 2,-1 2,-2l0 -13c0,-1 0,-1 -1,-2 0,0 0,0 -1,0 0,0 -1,1 -1,1l-13 13c0,0 0,1 0,2 0,0 1,1 2,1z"/>
        <path class="fil0" d="M37 25l13 0c1,0 1,-1 2,-1 0,-1 0,-2 -1,-2l-12 -13c-1,0 -1,-1 -2,-1 0,0 0,0 -1,0 0,1 -1,1 -1,2l0 13c0,1 1,2 2,2z"/>
    </g>
        
</svg>
