<?xml version="1.0" encoding="UTF-8"?>
<svg xmlns="http://www.w3.org/2000/svg" xmlns:xlink="http://www.w3.org/1999/xlink" version="1.1" viewBox="0 0 640 360" preserveAspectRatio="xMidYMid meet" onload="initialize(evt)">
  <!--SVG SMIL Animation Export (c) 2015 Animatron LLC-->
  <!--Version 1.0 by squared9-->
  <defs>
    <mask id="canvasMask">
      <rect x="0" y="0" width="640px" height="360px" fill="#FFFFFF" stroke="none"/>
    </mask>
  </defs>
  <rect fill="#ffffff" stroke="none" x="0" y="0" width="640px" height="360px"/>
  <g id="id9f6fc43ec4699267f7f0cf02" mask="url(#canvasMask)">
    <g id="ida201701790d032acc00323f6" visibility="hidden">
      <set attributeName="visibility" attributeType="CSS" to="visible" begin="0s" fill="none"/>
      <set attributeName="visibility" attributeType="CSS" to="hidden" begin="10s" dur="1000000000000s" fill="freeze"/>
      <animateTransform attributeName="transform" type="translate" additive="replace" begin="0s" dur="1.1s" repeatCount="1" fill="none" from="320.0 180.0" to="320.0 180.0" calcMode="discrete"/>
      <animateTransform attributeName="transform" type="translate" additive="replace" begin="1.1s" dur="1.2999999999999998s" repeatCount="1" fill="none" from="320.0 180.0" to="320.0 180.0" calcMode="discrete"/>
      <animateTransform attributeName="transform" type="translate" additive="replace" begin="2.4s" dur="2.6s" repeatCount="1" fill="none" from="320.0 180.0" to="320.0 180.0" calcMode="discrete"/>
      <animateTransform attributeName="transform" type="translate" additive="replace" begin="5s" dur="2s" repeatCount="1" fill="none" from="320.0 180.0" to="320.0 180.0" calcMode="discrete"/>
      <animateTransform attributeName="transform" type="translate" additive="replace" begin="7s" dur="1.1999999999999993s" repeatCount="1" fill="none" from="320.0 180.0" to="320.0 180.0" calcMode="discrete"/>
      <animateTransform attributeName="transform" type="translate" additive="replace" begin="8.2s" dur="0.3000000000000007s" repeatCount="1" fill="none" from="320.0 180.0" to="320.0 180.0" calcMode="discrete"/>
      <animateTransform attributeName="transform" type="translate" additive="replace" begin="8.5s" dur="1.5s" repeatCount="1" fill="none" from="320.0 180.0" to="320.0 180.0" calcMode="discrete"/>
      <animateTransform attributeName="transform" type="rotate" additive="sum" begin="0s" dur="1.1s" repeatCount="1" fill="none" from="0.0 0.0 0.0" to="0.0 0.0 0.0" calcMode="discrete"/>
      <animateTransform attributeName="transform" type="rotate" additive="sum" begin="1.1s" dur="1.2999999999999998s" repeatCount="1" fill="none" from="0.0 0.0 0.0" to="0.0 0.0 0.0" calcMode="discrete"/>
      <animateTransform attributeName="transform" type="rotate" additive="sum" begin="2.4s" dur="2.6s" repeatCount="1" fill="none" from="0.0 0.0 0.0" to="159.00000000000003 0.0 0.0"/>
      <animateTransform attributeName="transform" type="rotate" additive="sum" begin="5s" dur="2s" repeatCount="1" fill="none" from="159.00000000000003 0.0 0.0" to="-29.000000000000004 0.0 0.0"/>
      <animateTransform attributeName="transform" type="rotate" additive="sum" begin="7s" dur="1.1999999999999993s" repeatCount="1" fill="none" from="-29.000000000000004 0.0 0.0" to="3.9999999999999996 0.0 0.0"/>
      <animateTransform attributeName="transform" type="rotate" additive="sum" begin="8.2s" dur="0.3000000000000007s" repeatCount="1" fill="none" from="3.9999999999999996 0.0 0.0" to="0.0 0.0 0.0"/>
      <animateTransform attributeName="transform" type="rotate" additive="sum" begin="8.5s" dur="1.5s" repeatCount="1" fill="none" from="0.0 0.0 0.0" to="0.0 0.0 0.0" calcMode="discrete"/>
      <animateTransform attributeName="transform" type="scale" additive="sum" begin="0s" dur="1.1s" repeatCount="1" fill="none" from="0.4756058893830131 0.4756058893830131" to="0.5447110186096048 0.5447110186096048"/>
      <animateTransform attributeName="transform" type="scale" additive="sum" begin="1.1s" dur="1.2999999999999998s" repeatCount="1" fill="none" from="0.5447110186096048 0.5447110186096048" to="0.3511298380358064 0.3511298380358064"/>
      <animateTransform attributeName="transform" type="scale" additive="sum" begin="2.4s" dur="2.6s" repeatCount="1" fill="none" from="0.3511298380358064 0.3511298380358064" to="0.3511298380358064 0.3511298380358064" calcMode="discrete"/>
      <animateTransform attributeName="transform" type="scale" additive="sum" begin="5s" dur="2s" repeatCount="1" fill="none" from="0.3511298380358064 0.3511298380358064" to="0.3511298380358064 0.3511298380358064" calcMode="discrete"/>
      <animateTransform attributeName="transform" type="scale" additive="sum" begin="7s" dur="1.1999999999999993s" repeatCount="1" fill="none" from="0.3511298380358064 0.3511298380358064" to="0.3511298380358064 0.3511298380358064" calcMode="discrete"/>
      <animateTransform attributeName="transform" type="scale" additive="sum" begin="8.2s" dur="0.3000000000000007s" repeatCount="1" fill="none" from="0.3511298380358064 0.3511298380358064" to="0.3511298380358064 0.3511298380358064" calcMode="discrete"/>
      <animateTransform attributeName="transform" type="scale" additive="sum" begin="8.5s" dur="1.5s" repeatCount="1" fill="none" from="0.3511298380358064 0.3511298380358064" to="0.3511298380358064 0.3511298380358064" calcMode="discrete"/>
      <animateTransform attributeName="transform" type="translate" additive="sum" begin="0s" dur="1.1s" repeatCount="1" fill="none" from="-0.006 0.001" to="-0.006 0.001" calcMode="discrete"/>
      <animateTransform attributeName="transform" type="translate" additive="sum" begin="1.1s" dur="1.2999999999999998s" repeatCount="1" fill="none" from="-0.006 0.001" to="-0.006 0.001" calcMode="discrete"/>
      <animateTransform attributeName="transform" type="translate" additive="sum" begin="2.4s" dur="2.6s" repeatCount="1" fill="none" from="-0.006 0.001" to="-0.006 0.001" calcMode="discrete"/>
      <animateTransform attributeName="transform" type="translate" additive="sum" begin="5s" dur="2s" repeatCount="1" fill="none" from="-0.006 0.001" to="-0.006 0.001" calcMode="discrete"/>
      <animateTransform attributeName="transform" type="translate" additive="sum" begin="7s" dur="1.1999999999999993s" repeatCount="1" fill="none" from="-0.006 0.001" to="-0.006 0.001" calcMode="discrete"/>
      <animateTransform attributeName="transform" type="translate" additive="sum" begin="8.2s" dur="0.3000000000000007s" repeatCount="1" fill="none" from="-0.006 0.001" to="-0.006 0.001" calcMode="discrete"/>
      <animateTransform attributeName="transform" type="translate" additive="sum" begin="8.5s" dur="1.5s" repeatCount="1" fill="none" from="-0.006 0.001" to="-0.006 0.001" calcMode="discrete"/>
      <path id="ida3ad45779418333aed11e75f" d="M 456,247 C 454,237 448,232 438,232 C 432.667,232 428.002,234 424.002,238 L 356.002,302 C 354.669,303.334 353.669,304.665 353.004,305.998 C 349.671,309.998 348.506,314.663 349.506,319.996 C 350.506,325.33 353.006,329.661 357.006,332.994 C 358.339,334.327 360.004,335.327 362.004,335.992 L 379.004,341.992 C 371.004,365.323 356.339,386.323 335.006,404.988 C 313.675,423.653 290.675,435.653 266.01,440.986 L 266.01,132.986 C 279.343,127.652 290.843,118.821 300.508,106.49 C 310.173,94.158 315.006,81.327 315.006,67.996 C 315.006,49.331 308.341,33.331 295.008,19.999 C 281.675,6.666 265.675,0 247.011,0 C 228.347,0 212.516,6.666 199.516,19.999 C 186.516,33.331 180.016,49.331 180.016,67.996 C 180.016,81.327 184.516,94.158 193.516,106.489 C 202.516,118.82 213.347,127.651 226.011,132.982 L 226.011,440.982 C 200.678,436.317 177.514,424.652 156.514,405.987 C 135.514,387.322 120.683,365.99 112.019,341.99 L 130.019,335.99 C 132.019,335.325 133.686,334.325 135.016,332.992 C 139.016,329.659 141.516,325.326 142.516,319.993 C 143.516,314.66 142.349,309.995 139.019,305.995 C 137.689,303.995 136.689,302.662 136.022,301.997 L 68.022,237.997 C 64.022,233.997 59.358,231.997 54.026,231.997 C 44.026,231.997 38.026,236.997 36.026,246.997 L 21.026,339.997 L 21.026,343.997 C 21.026,349.33 22.858,353.995 26.524,357.995 C 30.19,361.995 34.69,363.995 40.022,363.995 C 42.686,363.995 44.686,363.662 46.018,362.997 L 62.018,357.997 C 75.351,397.33 98.684,429.495 132.015,454.495 C 165.348,479.495 203.345,491.995 246.012,491.995 C 288.677,491.995 326.843,479.495 360.509,454.495 C 394.175,429.495 417.34,397.33 430.005,357.999 L 446.005,362.999 C 447.338,363.664 449.338,363.997 452.003,363.997 C 457.336,363.997 461.836,361.997 465.501,357.997 C 469.166,353.997 470.999,349.332 470.999,343.999 L 470.999,339.999 L 455.999,246.999 L 455.999,246.999 M 227.999,87.499 C 222.668,81.834 220.004,75.169 220.004,67.504 C 220.004,59.84 222.671,53.34 228.001,48.008 C 233.331,42.676 239.831,40.012 247.495,40.012 C 255.159,40.012 261.659,42.676 266.992,48.008 C 272.325,53.34 274.99,60.004 274.99,68.004 C 274.99,76.004 272.325,82.669 266.992,88 C 261.659,93.331 255.159,95.996 247.495,95.996 C 239.831,95.996 233.331,93.165 228.001,87.5 L 228.001,87.5 M 456.001,247 " style="fill: #000000; fill-opacity: 1.0; stroke: none" visibility="hidden">
        <set attributeName="visibility" attributeType="CSS" to="visible" begin="0s" fill="none"/>
        <set attributeName="visibility" attributeType="CSS" to="hidden" begin="10s" dur="1000000000000s" fill="freeze"/>
        <animateTransform attributeName="transform" type="translate" additive="replace" begin="0s" dur="10s" repeatCount="1" fill="none" from="0.0 0.0" to="0.0 0.0" calcMode="discrete"/>
        <animateTransform attributeName="transform" type="translate" additive="sum" begin="0s" dur="10s" repeatCount="1" fill="none" from="-246.002 -245.999" to="-246.002 -245.999" calcMode="discrete"/>
      </path>
    </g>
    <g id="idc1ecae648f33b92a5462c7dd" visibility="hidden">
      <set attributeName="visibility" attributeType="CSS" to="visible" begin="0s" fill="none"/>
      <set attributeName="visibility" attributeType="CSS" to="hidden" begin="10s" dur="1000000000000s" fill="freeze"/>
      <animateTransform attributeName="transform" type="translate" additive="replace" begin="0s" dur="10s" repeatCount="1" fill="none" from="5.0 330.203" to="5.0 330.203" calcMode="discrete"/>
      <animateTransform attributeName="transform" type="scale" additive="sum" begin="0s" dur="10s" repeatCount="1" fill="none" from="1.0 1.0" to="1.0 1.0" calcMode="discrete"/>
      <animateTransform attributeName="transform" type="translate" additive="sum" begin="0s" dur="10s" repeatCount="1" fill="none" from="-0.0 -0.0" to="-0.0 -0.0" calcMode="discrete"/>
      <g id="id27b47c3f7afecf18efdf9476" visibility="hidden">
        <set attributeName="visibility" attributeType="CSS" to="visible" begin="0s" fill="none"/>
        <set attributeName="visibility" attributeType="CSS" to="hidden" begin="10s" dur="1000000000000s" fill="freeze"/>
        <animateTransform attributeName="transform" type="translate" additive="replace" begin="0s" dur="10s" repeatCount="1" fill="none" from="0.0 0.0" to="0.0 0.0" calcMode="discrete"/>
        <animateTransform attributeName="transform" type="translate" additive="sum" begin="0s" dur="10s" repeatCount="1" fill="none" from="70.498 12.399" to="70.498 12.399" calcMode="discrete"/>
        <g id="id03746fc644a7e05434afde79" visibility="hidden">
          <set attributeName="visibility" attributeType="CSS" to="visible" begin="0s" fill="none"/>
          <set attributeName="visibility" attributeType="CSS" to="hidden" begin="10s" dur="1000000000000s" fill="freeze"/>
          <animateTransform attributeName="transform" type="translate" additive="replace" begin="0s" dur="10s" repeatCount="1" fill="none" from="-58.1 0.0" to="-58.1 0.0" calcMode="discrete"/>
          <animateTransform attributeName="transform" type="translate" additive="sum" begin="0s" dur="10s" repeatCount="1" fill="none" from="-0.0 -0.0" to="-0.0 -0.0" calcMode="discrete"/>
          <path id="idf507381717a5182ee9815416" d="M 23.5,12.5 C 23.5,18.684 18.531,23.697 12.402,23.697 C 6.272,23.697 1.303,18.685 1.303,12.501 C 1.303,6.316 6.272,1.302 12.402,1.302 C 18.531,1.302 23.5,6.316 23.5,12.501 L 23.5,12.501 M 23.5,12.501 " style="fill: #38393a; fill-opacity: 1.0; stroke: none" visibility="hidden">
            <set attributeName="visibility" attributeType="CSS" to="visible" begin="0s" fill="none"/>
            <set attributeName="visibility" attributeType="CSS" to="hidden" begin="10s" dur="1000000000000s" fill="freeze"/>
            <animateTransform attributeName="transform" type="translate" additive="replace" begin="0s" dur="10s" repeatCount="1" fill="none" from="0.002 0.101" to="0.002 0.101" calcMode="discrete"/>
            <animateTransform attributeName="transform" type="translate" additive="sum" begin="0s" dur="10s" repeatCount="1" fill="none" from="-12.401 -12.5" to="-12.401 -12.5" calcMode="discrete"/>
          </path>
          <g id="id5fe7d3c928557e017088aa9a" visibility="hidden">
            <set attributeName="visibility" attributeType="CSS" to="visible" begin="0s" fill="none"/>
            <set attributeName="visibility" attributeType="CSS" to="hidden" begin="10s" dur="1000000000000s" fill="freeze"/>
            <animateTransform attributeName="transform" type="translate" additive="replace" begin="0s" dur="10s" repeatCount="1" fill="none" from="0.0 0.0" to="0.0 0.0" calcMode="discrete"/>
            <animateTransform attributeName="transform" type="translate" additive="sum" begin="0s" dur="10s" repeatCount="1" fill="none" from="-0.0 -0.0" to="-0.0 -0.0" calcMode="discrete"/>
            <path id="idebe2feec6f7c4a5241df6ab1" d="M 12.399,0.5 C 5.8,0.5 0.5,5.8 0.5,12.399 C 0.5,18.999 5.8,24.297 12.399,24.297 C 18.999,24.297 24.296,18.999 24.296,12.399 C 24.296,5.799 18.897,0.5 12.397,0.5 L 12.397,0.5 M 18.296,16 C 17.696,17 16.997,18.1 16.798,18.397 L 16.798,18.497 L 16.698,18.497 C 16.299,18.696 14.899,19.095 14.201,19.095 C 14.201,19.095 14.102,19.095 14.102,19.095 L 14.003,19.095 C 13.203,18.798 11.403,18.198 10.804,17.999 C 9.804,18.398 8.804,18.898 7.804,19.398 C 7.304,19.597 6.904,19.894 6.404,20.093 C 6.404,20.093 6.404,20.093 6.404,20.093 C 6.404,20.093 5.404,20.693 5.204,20.693 L 4.905,20.693 L 4.905,20.396 C 4.905,19.796 5.004,18.397 5.103,18.1 C 6.401,4.1 11.6,2.902 11.798,2.802 C 11.996,2.802 12.296,2.703 12.494,2.703 L 12.593,2.703 C 12.692,2.703 12.692,2.703 12.791,2.703 C 17.09,2.703 21.289,13.703 21.488,14.203 C 21.588,14.401 21.787,15.099 21.887,15.198 L 21.987,15.498 L 18.289,15.997 L 18.289,15.997 M 12.39,0.497 " style="fill: #ffbc00; fill-opacity: 1.0; stroke: none" visibility="hidden">
              <set attributeName="visibility" attributeType="CSS" to="visible" begin="0s" fill="none"/>
              <set attributeName="visibility" attributeType="CSS" to="hidden" begin="10s" dur="1000000000000s" fill="freeze"/>
              <animateTransform attributeName="transform" type="translate" additive="replace" begin="0s" dur="10s" repeatCount="1" fill="none" from="0.0 0.0" to="0.0 0.0" calcMode="discrete"/>
              <animateTransform attributeName="transform" type="translate" additive="sum" begin="0s" dur="10s" repeatCount="1" fill="none" from="-12.399 -12.3985" to="-12.399 -12.3985" calcMode="discrete"/>
            </path>
            <path id="id0c6cd35611aca7e96c082e21" d="M 13.899,7.8 C 13.201,7.8 12.602,7.501 12.602,7.501 L 11.503,7.001 L 12.701,7.001 C 13.099,7.001 13.297,6.803 13.495,6.504 C 13.693,6.205 13.594,5.906 13.495,5.706 C 13.195,5.206 12.895,5.008 12.498,5.008 C 11.498,5.008 10.399,6.107 9.899,6.706 C 9.3,7.606 8.8,8.705 8.403,10.005 C 9.601,9.406 11.899,8.507 15.798,7.809 L 15.996,7.809 L 16.694,9.809 L 16.397,9.908 C 10.797,10.908 8.198,12.606 7.599,13.003 C 7.3,14.303 7.102,15.803 6.904,17.3 L 10.303,16.101 L 12.303,16.8 C 13.103,17.097 13.603,17.197 14.002,17.396 C 14.601,17.396 15.799,17.099 16.198,16.9 C 16.397,16.603 17.397,15.103 17.796,14.303 L 17.896,14.204 L 17.996,14.204 C 18.695,14.105 19.294,14.006 19.693,14.006 C 18.994,11.907 17.395,8.407 15.995,6.507 C 15.495,7.606 14.495,7.806 13.896,7.806 L 13.896,7.806 M 16.395,13.305 C 15.895,14.404 14.296,15.003 13.098,15.003 C 12.499,15.003 11.999,14.805 11.602,14.607 L 11.404,14.508 L 12.204,13.008 L 12.504,13.206 C 12.603,13.305 12.901,13.404 13.201,13.404 C 14.001,13.404 14.801,13.005 14.9,12.705 L 14.999,12.405 L 16.596,13.103 L 16.397,13.301 L 16.397,13.301 M 13.897,7.801 " style="fill: #ffbc00; fill-opacity: 1.0; stroke: none" visibility="hidden">
              <set attributeName="visibility" attributeType="CSS" to="visible" begin="0s" fill="none"/>
              <set attributeName="visibility" attributeType="CSS" to="hidden" begin="10s" dur="1000000000000s" fill="freeze"/>
              <animateTransform attributeName="transform" type="translate" additive="replace" begin="0s" dur="10s" repeatCount="1" fill="none" from="0.898 -1.198" to="0.898 -1.198" calcMode="discrete"/>
              <animateTransform attributeName="transform" type="translate" additive="sum" begin="0s" dur="10s" repeatCount="1" fill="none" from="-13.297 -11.2005" to="-13.297 -11.2005" calcMode="discrete"/>
            </path>
          </g>
        </g>
        <g id="idaa075c7c827401e3ca04fb0e" visibility="hidden">
          <set attributeName="visibility" attributeType="CSS" to="visible" begin="0s" fill="none"/>
          <set attributeName="visibility" attributeType="CSS" to="hidden" begin="10s" dur="1000000000000s" fill="freeze"/>
          <animateTransform attributeName="transform" type="translate" additive="replace" begin="0s" dur="10s" repeatCount="1" fill="none" from="14.495 -0.044" to="14.495 -0.044" calcMode="discrete"/>
          <animateTransform attributeName="transform" type="translate" additive="sum" begin="0s" dur="10s" repeatCount="1" fill="none" from="-0.0 -0.0" to="-0.0 -0.0" calcMode="discrete"/>
          <path id="id031f4dd57ff8b330969cfccb" d="M 123.5,7.5 L 116.5,7.5 C 115,7.5 113.803,8.599 113.803,9.996 L 113.803,14.596 C 113.803,15.993 115,17.091 116.5,17.091 L 123.5,17.091 C 125,17.091 126.197,15.992 126.197,14.595 L 126.197,9.995 C 126.197,8.695 125,7.497 123.5,7.497 L 123.5,7.497 M 123.303,13.997 C 123.303,14.497 122.903,14.797 122.403,14.797 L 117.503,14.797 C 117.003,14.797 116.603,14.4 116.603,14 L 116.603,10.603 C 116.603,10.103 117.003,9.706 117.503,9.706 L 122.403,9.706 C 122.903,9.706 123.303,10.105 123.303,10.605 L 123.303,14.004 L 123.303,14.004 M 138,7.604 L 138,14.004 L 133.101,8.504 C 132.503,7.705 131.503,7.606 131.204,7.507 L 131.204,7.507 L 128.204,7.507 L 128.204,17.007 L 131.204,17.007 L 131.204,10.608 C 132.103,11.608 135.302,15.307 136.201,16.106 C 137.4,17.106 138.099,17.106 138.099,17.106 L 138.099,17.106 L 140.998,17.106 L 140.998,7.606 L 137.998,7.606 L 137.998,7.606 M 52.399,14.106 L 47.5,8.606 C 46.903,7.807 45.903,7.708 45.605,7.609 L 45.605,7.609 L 42.605,7.609 L 42.605,17.109 L 45.605,17.109 L 45.605,10.71 C 46.504,11.71 49.702,15.409 50.601,16.208 C 51.801,17.208 52.501,17.208 52.501,17.208 L 52.501,17.208 L 55.4,17.208 L 55.4,7.608 L 52.4,7.608 L 52.4,14.108 L 52.4,14.108 M 57.299,17.107 L 60.299,17.107 L 60.299,7.607 L 57.299,7.607 L 57.299,17.107 L 57.299,17.107 M 89.097,9.908 L 92.997,9.908 L 92.997,17.107 L 95.997,17.107 L 95.997,9.908 L 99.796,9.908 L 99.796,7.61 L 89.096,7.61 L 89.096,9.908 L 89.096,9.908 M 112.195,10.507 C 112.392,10.207 112.592,10.108 112.691,9.708 C 112.99,8.408 111.09,7.71 110.291,7.71 L 108.492,7.71 L 103.893,7.71 L 103.893,7.71 L 100.893,7.71 L 100.893,7.71 L 100.893,10.01 L 100.893,17.208 L 103.893,17.208 L 103.893,9.908 L 108.992,9.908 L 106.193,13.007 L 109.89,17.107 L 113.587,17.107 L 109.89,13.007 L 112.189,10.507 L 112.189,10.507 M 82.689,7.607 L 82.689,7.607 L 82.689,7.607 L 77.689,17.107 L 80.886,17.207 L 84.286,10.707 L 87.686,17.207 L 90.883,17.107 L 85.883,7.607 L 82.686,7.607 L 82.686,7.607 M 33.987,7.607 L 33.987,7.607 L 33.987,7.607 L 28.987,17.107 L 32.187,17.207 L 35.586,10.707 L 38.985,17.207 L 42.185,17.107 L 37.185,7.607 L 33.985,7.607 L 33.985,7.607 M 74.384,7.607 L 74.384,7.607 C 74.085,7.607 73.388,7.706 72.888,8.404 L 69.789,13.103 L 66.69,8.404 C 66.29,7.706 65.593,7.607 65.294,7.607 L 65.294,7.607 L 62.294,7.607 L 62.294,17.106 L 65.294,17.106 L 65.294,10.907 L 69.194,17.106 L 69.694,17.106 L 69.793,17.106 L 70.293,17.106 L 74.293,10.806 L 74.293,17.106 L 77.293,17.106 L 77.293,7.607 L 74.494,7.607 C 74.593,7.607 74.593,7.607 74.396,7.607 L 74.396,7.607 M 123.494,7.508 " style="fill: #ffffff; fill-opacity: 1.0; stroke: none" visibility="hidden">
            <set attributeName="visibility" attributeType="CSS" to="visible" begin="0s" fill="none"/>
            <set attributeName="visibility" attributeType="CSS" to="hidden" begin="10s" dur="1000000000000s" fill="freeze"/>
            <animateTransform attributeName="transform" type="translate" additive="replace" begin="0s" dur="10s" repeatCount="1" fill="none" from="0.0 0.0" to="0.0 0.0" calcMode="discrete"/>
            <animateTransform attributeName="transform" type="translate" additive="sum" begin="0s" dur="10s" repeatCount="1" fill="none" from="-84.9945 -12.3535" to="-84.9945 -12.3535" calcMode="discrete"/>
          </path>
          <path id="idf1ccc6fde741431a9f647b3d" d="M 123.5,7.5 L 116.5,7.5 C 115,7.5 113.803,8.599 113.803,9.996 L 113.803,14.596 C 113.803,15.993 115,17.091 116.5,17.091 L 123.5,17.091 C 125,17.091 126.197,15.992 126.197,14.595 L 126.197,9.995 C 126.197,8.695 125,7.497 123.5,7.497 L 123.5,7.497 M 123.303,13.997 C 123.303,14.497 122.903,14.797 122.403,14.797 L 117.503,14.797 C 117.003,14.797 116.603,14.4 116.603,14 L 116.603,10.603 C 116.603,10.103 117.003,9.706 117.503,9.706 L 122.403,9.706 C 122.903,9.706 123.303,10.105 123.303,10.605 L 123.303,14.004 L 123.303,14.004 M 138,7.604 L 138,14.004 L 133.101,8.504 C 132.503,7.705 131.503,7.606 131.204,7.507 L 131.204,7.507 L 128.204,7.507 L 128.204,17.007 L 131.204,17.007 L 131.204,10.608 C 132.103,11.608 135.302,15.307 136.201,16.106 C 137.4,17.106 138.099,17.106 138.099,17.106 L 138.099,17.106 L 140.998,17.106 L 140.998,7.606 L 137.998,7.606 L 137.998,7.606 M 52.399,14.106 L 47.5,8.606 C 46.903,7.807 45.903,7.708 45.605,7.609 L 45.605,7.609 L 42.605,7.609 L 42.605,17.109 L 45.605,17.109 L 45.605,10.71 C 46.504,11.71 49.702,15.409 50.601,16.208 C 51.801,17.208 52.501,17.208 52.501,17.208 L 52.501,17.208 L 55.4,17.208 L 55.4,7.608 L 52.4,7.608 L 52.4,14.108 L 52.4,14.108 M 57.299,17.107 L 60.299,17.107 L 60.299,7.607 L 57.299,7.607 L 57.299,17.107 L 57.299,17.107 M 89.097,9.908 L 92.997,9.908 L 92.997,17.107 L 95.997,17.107 L 95.997,9.908 L 99.796,9.908 L 99.796,7.61 L 89.096,7.61 L 89.096,9.908 L 89.096,9.908 M 112.195,10.507 C 112.392,10.207 112.592,10.108 112.691,9.708 C 112.99,8.408 111.09,7.71 110.291,7.71 L 108.492,7.71 L 103.893,7.71 L 103.893,7.71 L 100.893,7.71 L 100.893,7.71 L 100.893,10.01 L 100.893,17.208 L 103.893,17.208 L 103.893,9.908 L 108.992,9.908 L 106.193,13.007 L 109.89,17.107 L 113.587,17.107 L 109.89,13.007 L 112.189,10.507 L 112.189,10.507 M 82.689,7.607 L 82.689,7.607 L 82.689,7.607 L 77.689,17.107 L 80.886,17.207 L 84.286,10.707 L 87.686,17.207 L 90.883,17.107 L 85.883,7.607 L 82.686,7.607 L 82.686,7.607 M 33.987,7.607 L 33.987,7.607 L 33.987,7.607 L 28.987,17.107 L 32.187,17.207 L 35.586,10.707 L 38.985,17.207 L 42.185,17.107 L 37.185,7.607 L 33.985,7.607 L 33.985,7.607 M 74.384,7.607 L 74.384,7.607 C 74.085,7.607 73.388,7.706 72.888,8.404 L 69.789,13.103 L 66.69,8.404 C 66.29,7.706 65.593,7.607 65.294,7.607 L 65.294,7.607 L 62.294,7.607 L 62.294,17.106 L 65.294,17.106 L 65.294,10.907 L 69.194,17.106 L 69.694,17.106 L 69.793,17.106 L 70.293,17.106 L 74.293,10.806 L 74.293,17.106 L 77.293,17.106 L 77.293,7.607 L 74.494,7.607 C 74.593,7.607 74.593,7.607 74.396,7.607 L 74.396,7.607 M 123.494,7.508 " style="fill: none; stroke: #000000; stroke-width: 0.5; stroke-opacity: 1.0" visibility="hidden">
            <set attributeName="visibility" attributeType="CSS" to="visible" begin="0s" fill="none"/>
            <set attributeName="visibility" attributeType="CSS" to="hidden" begin="10s" dur="1000000000000s" fill="freeze"/>
            <animateTransform attributeName="transform" type="translate" additive="replace" begin="0s" dur="10s" repeatCount="1" fill="none" from="0.0 0.0" to="0.0 0.0" calcMode="discrete"/>
            <animateTransform attributeName="transform" type="translate" additive="sum" begin="0s" dur="10s" repeatCount="1" fill="none" from="-84.9945 -12.3535" to="-84.9945 -12.3535" calcMode="discrete"/>
          </path>
        </g>
        <path id="id904a6b2ae8382103b4042239" d="M 12.399,0.5 C 18.999,0.5 24.296,5.8 24.296,12.399 C 24.296,18.999 18.998,24.297 12.398,24.297 C 5.798,24.297 0.499,18.898 0.499,12.398 C 0.499,5.898 5.799,0.499 12.398,0.499 M 12.398,-0.001 C 5.599,-0.001 -0,5.598 -0,12.397 C -0,19.196 5.599,24.796 12.398,24.796 C 19.197,24.796 24.796,19.196 24.796,12.398 C 24.796,5.599 19.197,-0.001 12.397,-0.001 L 12.397,-0.001 L 12.397,-0.001 M 12.397,0.499 " style="fill: #000000; fill-opacity: 1.0; stroke: none" visibility="hidden">
          <set attributeName="visibility" attributeType="CSS" to="visible" begin="0s" fill="none"/>
          <set attributeName="visibility" attributeType="CSS" to="hidden" begin="10s" dur="1000000000000s" fill="freeze"/>
          <animateTransform attributeName="transform" type="translate" additive="replace" begin="0s" dur="10s" repeatCount="1" fill="none" from="-58.099 0.0" to="-58.099 0.0" calcMode="discrete"/>
          <animateTransform attributeName="transform" type="translate" additive="sum" begin="0s" dur="10s" repeatCount="1" fill="none" from="-12.3995 -12.398" to="-12.3995 -12.398" calcMode="discrete"/>
        </path>
      </g>
    </g>
  </g>
  <script><![CDATA[
      var document = null;
      var root = null;
      var scheduler = null;
      var schedulerEnabled = ((navigator.userAgent.indexOf('Safari') != -1) && (navigator.userAgent.indexOf('Chrome') == -1)) ||
                             (navigator.userAgent.match(/(iPod|iPhone|iPad)/) && navigator.userAgent.match(/AppleWebKit/) && !navigator.userAgent.match('CriOS'));
      var currentEvent = 0;
      var previousTime = 0;
      var nextTime = 0;

      function initialize(event)
      {
         document = event.target.ownerDocument;
         root = document.documentElement;
         if (schedulerEnabled && events.length > 0) {
             var event = events[currentEvent];
             while (currentEvent < events.length && events[currentEvent]["time"] == 0) { 
                 processEvent();
                 currentEvent += 1;
             }
             if (currentEvent < events.length) {
                 var time = events[currentEvent]["time"];
                 nextTime = time;
                 scheduler = setTimeout(processSchedule, time - previousTime);
             }
         }
      };

      function freeze()
      {
         root.pauseAnimations();
      };

      function processSchedule()
      {
         if (currentEvent < events.length) {
             var event = events[currentEvent];
             previousTime = nextTime;
             while (currentEvent < events.length && events[currentEvent]["time"] == nextTime) { 
                 processEvent();
                 currentEvent += 1;
             }
             if (currentEvent < events.length) {
                 var time = events[currentEvent]["time"];
                 nextTime = time;
                 scheduler = setTimeout(processSchedule, time - previousTime);
             }
         }
      };

      function processEvent()
      {
         var event = events[currentEvent];
         if ("audio_start" in event) { 
             event = event["audio_start"];
             var id = event["id"];
             var audio = document.getElementById(id);
             if (audio != undefined)
                 audio.play();
         }
         else if ("audio_stop" in event) { 
             event = event["audio_stop"];
             var id = event["id"];
             var audio = document.getElementById(id);
             if (audio != undefined) {
                 audio.pause();
                 audio.currentTime = 0;
             }
         }
         else if ("pause" in event) { 
             event = event["pause"];
             freeze();
         }
      };

    var events = [{"time": 9650,"pause": {}}]
]]></script>
  <rect id="finalizer" x="0" y="0" width="1" height="1" style="fill: none; stroke: none">
    <set attributeName="x" to="0" begin="9.65s" dur="1000000s" fill="freeze" onbegin="freeze();"/>
  </rect>
</svg>
